<svg version="1.1" xmlns="http://www.w3.org/2000/svg" xmlns:xlink="http://www.w3.org/1999/xlink" width="10" height="10" viewBox="0,0,256,256"><g fill="#dddddd" fill-rule="nonzero" stroke="none" stroke-width="1" stroke-linecap="butt" stroke-linejoin="miter" stroke-miterlimit="10" stroke-dasharray="" stroke-dashoffset="0" font-family="none" font-weight="none" font-size="none" text-anchor="none" style="mix-blend-mode: normal"><g transform="translate(5.12055,5.12) scale(25.6,25.6)"><path d="M5.92001,3.84v1.92v2.88c0,0.53016 -0.42984,0.96 -0.96,0.96c-0.53016,0 -0.96,-0.42984 -0.96,-0.96l-0.00001,-2.88l0.00001,-1.92v-2.88c0,-0.53016 0.42984,-0.96 0.96,-0.96c0.53016,0 0.96,0.42984 0.96,0.96z"></path><path d="M5.75998,5.92001h-1.92h-2.88c-0.53016,0 -0.96,-0.42984 -0.96,-0.96c0,-0.53016 0.42984,-0.96 0.96,-0.96l2.88,-0.00001l1.92,0.00001h2.88c0.53016,0 0.96,0.42984 0.96,0.96c0,0.53016 -0.42984,0.96 -0.96,0.96z"></path></g></g></svg>